<svg xmlns="http://www.w3.org/2000/svg" width="256" height="256" viewBox="0 0 256 256">
  <defs>
    <linearGradient id="g" x1="0" y1="0" x2="1" y2="1">
      <stop offset="0" stop-color="#7C4DFF"/>
      <stop offset="1" stop-color="#6B46C1"/>
    </linearGradient>
  </defs>
  <rect x="24" y="24" rx="56" ry="56" width="208" height="176" fill="url(#g)"/>
  <path d="M88 220c-8 0-12-10-6-16l28-28h62c26 0 48-22 48-48V80c0-8-6-16-16-16H72c-18 0-32 14-32 32v32c0 18 14 32 32 32h16v44c0 8 0 16 0 16z" fill="#7C4DFF" opacity=".15"/>
  <circle cx="104" cy="112" r="10" fill="#fff"/>
  <circle cx="148" cy="112" r="10" fill="#fff"/>
  <circle cx="192" cy="112" r="10" fill="#fff"/>
</svg>
